<?xml version="1.0" encoding="utf-8"?>
<!-- Generator: Adobe Illustrator 16.0.0, SVG Export Plug-In . SVG Version: 6.00 Build 0)  -->
<!DOCTYPE svg PUBLIC "-//W3C//DTD SVG 1.1//EN" "http://www.w3.org/Graphics/SVG/1.1/DTD/svg11.dtd">
<svg version="1.1" id="Livello_1" xmlns="http://www.w3.org/2000/svg" xmlns:xlink="http://www.w3.org/1999/xlink" x="0px" y="0px"
	 width="141.732px" height="141.732px" viewBox="0 0 141.732 141.732" enable-background="new 0 0 141.732 141.732"
	 xml:space="preserve">
<g id="Livello_5">
	<path fill="#FFFFFF" d="M113.326,70.191c0-2.97-2.377-5.376-5.307-5.376H75.543V32.387v-0.002c0-2.979-2.418-5.396-5.396-5.396
		c-2.98,0-5.398,2.417-5.398,5.396V70.17c0,2.981,2.418,5.398,5.398,5.398h37.875C110.949,75.568,113.326,73.161,113.326,70.191
		 M129.533,70.157c0,32.798-26.584,59.386-59.375,59.386c-32.793,0-59.375-26.588-59.375-59.386s26.582-59.386,59.375-59.386
		C102.949,10.771,129.533,37.359,129.533,70.157 M140.314,70.157C140.314,31.41,108.904,0,70.158,0C31.41,0,0,31.41,0,70.157
		s31.41,70.157,70.158,70.157C108.904,140.314,140.314,108.904,140.314,70.157"/>
</g>
<g id="Livello_1_1_">
</g>
</svg>
