<?xml version="1.0" encoding="utf-8"?>
<!-- Generator: Adobe Illustrator 16.0.0, SVG Export Plug-In . SVG Version: 6.00 Build 0)  -->
<!DOCTYPE svg PUBLIC "-//W3C//DTD SVG 1.1//EN" "http://www.w3.org/Graphics/SVG/1.1/DTD/svg11.dtd">
<svg version="1.1" id="Livello_1" xmlns="http://www.w3.org/2000/svg" xmlns:xlink="http://www.w3.org/1999/xlink" x="0px" y="0px"
	 width="141.732px" height="141.732px" viewBox="0 0 141.732 141.732" enable-background="new 0 0 141.732 141.732"
	 xml:space="preserve">
<g id="Livello_110">
	<path fill="#FFFFFF" d="M95.35,50.645c0,13.979-11.39,25.321-25.438,25.321c-14.051,0-25.438-11.342-25.438-25.321
		c0-13.984,11.389-25.322,25.438-25.322C83.964,25.322,95.35,36.66,95.35,50.645 M121.743,50.645C121.743,22.674,98.966,0,70.866,0
		C42.768,0,19.989,22.674,19.989,50.645c0,12.298,4.408,23.573,11.733,32.345l39.188,56.283l39.761-57.104
		c1.429-1.778,2.736-3.653,3.916-5.625l0.402-0.573h-0.066C119.253,68.516,121.743,59.874,121.743,50.645"/>
</g>
<g id="Livello_1_1_">
</g>
</svg>
