<?xml version="1.0" encoding="utf-8"?>
<!-- Generator: Adobe Illustrator 16.0.0, SVG Export Plug-In . SVG Version: 6.00 Build 0)  -->
<!DOCTYPE svg PUBLIC "-//W3C//DTD SVG 1.1//EN" "http://www.w3.org/Graphics/SVG/1.1/DTD/svg11.dtd">
<svg version="1.1" id="Livello_1" xmlns="http://www.w3.org/2000/svg" xmlns:xlink="http://www.w3.org/1999/xlink" x="0px" y="0px"
	 width="141.732px" height="141.732px" viewBox="0 0 141.732 141.732" enable-background="new 0 0 141.732 141.732"
	 xml:space="preserve">
<g id="Livello_29">
	<path fill="#FFFFFF" d="M105.614,118.681c3.398,3.396,3.4,8.911,0,12.311c-3.396,3.399-8.91,3.398-12.311,0
		c-0.021-0.02-0.035-0.04-0.054-0.061l-0.024,0.021l-57.66-57.66l0.023-0.021c-1.609-1.579-2.607-3.775-2.607-6.208
		c-0.002-2.73,1.258-5.166,3.229-6.763l-0.06-0.058l57.66-57.66l0.024,0.024c0.019-0.021,0.033-0.039,0.054-0.059
		c3.399-3.399,8.911-3.399,12.312,0c3.398,3.396,3.398,8.908,0,12.312c-0.021,0.02-0.041,0.034-0.061,0.054l0.022,0.024
		L54.043,67.063l51.54,51.54l-0.024,0.021C105.573,118.646,105.594,118.66,105.614,118.681"/>
</g>
<g id="Livello_1_1_">
</g>
</svg>
