<?xml version="1.0" encoding="utf-8"?>
<!-- Generator: Adobe Illustrator 16.0.0, SVG Export Plug-In . SVG Version: 6.00 Build 0)  -->
<!DOCTYPE svg PUBLIC "-//W3C//DTD SVG 1.1//EN" "http://www.w3.org/Graphics/SVG/1.1/DTD/svg11.dtd">
<svg version="1.1" id="Layer_1" xmlns:sketch="http://www.bohemiancoding.com/sketch/ns"
	 xmlns="http://www.w3.org/2000/svg" xmlns:xlink="http://www.w3.org/1999/xlink" x="0px" y="0px" width="16px" height="16px"
	 viewBox="0 0 16 16" enable-background="new 0 0 16 16" xml:space="preserve">
<title></title>
<g id="Icons_with_numbers">
	<g id="Group" transform="translate(-192.000000, -192.000000)">
		<path id="Oval_163" fill="#FFFFFF" d="M201,205.917c2.513-0.421,4.496-2.404,4.917-4.917H203v-2h2.917
			c-0.421-2.513-2.404-4.496-4.917-4.917V197h-2v-2.917c-2.513,0.421-4.496,2.404-4.917,4.917H197v2h-2.917
			c0.421,2.513,2.404,4.496,4.917,4.917V203h2V205.917z M200,208c-4.418,0-8-3.582-8-8c0-4.418,3.582-8,8-8c4.418,0,8,3.582,8,8
			C208,204.418,204.418,208,200,208z"/>
	</g>
</g>
</svg>
