<?xml version="1.0" encoding="utf-8"?>
<!-- Generator: Adobe Illustrator 16.0.0, SVG Export Plug-In . SVG Version: 6.00 Build 0)  -->
<!DOCTYPE svg PUBLIC "-//W3C//DTD SVG 1.1//EN" "http://www.w3.org/Graphics/SVG/1.1/DTD/svg11.dtd">
<svg version="1.1" id="Livello_1" xmlns="http://www.w3.org/2000/svg" xmlns:xlink="http://www.w3.org/1999/xlink" x="0px" y="0px"
	 width="141.732px" height="141.732px" viewBox="0 0 141.732 141.732" enable-background="new 0 0 141.732 141.732"
	 xml:space="preserve">
<g id="Livello_29">
	<path d="M36.116,14.859c-3.398-3.396-3.4-8.911,0-12.311c3.396-3.399,8.91-3.398,12.311,0c0.021,0.02,0.035,0.04,0.054,0.061
		l0.024-0.021l57.66,57.66l-0.023,0.021c1.609,1.579,2.607,3.775,2.607,6.208c0.002,2.73-1.258,5.167-3.229,6.763l0.06,0.058
		l-57.66,57.66l-0.024-0.024c-0.019,0.021-0.033,0.039-0.054,0.059c-3.399,3.399-8.911,3.399-12.312,0
		c-3.398-3.396-3.398-8.908,0-12.312c0.021-0.02,0.041-0.034,0.061-0.054l-0.022-0.024l52.119-52.125l-51.54-51.54l0.024-0.021
		C36.157,14.894,36.135,14.88,36.116,14.859"/>
</g>
<g id="Livello_1_1_">
</g>
</svg>
